<svg xmlns="http://www.w3.org/2000/svg" viewBox="0 0 64 64">
  <defs>
    <linearGradient id="favicon-bg" x1="16" y1="10" x2="48" y2="54" gradientUnits="userSpaceOnUse">
      <stop offset="0" stop-color="#1f2933" />
      <stop offset="1" stop-color="#0f172a" />
    </linearGradient>
    <radialGradient id="favicon-glow" cx="32" cy="20" r="28" gradientUnits="userSpaceOnUse">
      <stop offset="0" stop-color="#ffffff" stop-opacity="0.35" />
      <stop offset="1" stop-color="#ffffff" stop-opacity="0" />
    </radialGradient>
  </defs>
  <rect x="6" y="6" width="52" height="52" rx="16" fill="url(#favicon-bg)" />
  <rect x="6" y="6" width="52" height="52" rx="16" fill="url(#favicon-glow)" />
  <rect x="6" y="6" width="52" height="52" rx="16" fill="#000" opacity="0.1" />
  <path
    d="M23.5 30.5c.6-3.8 3.9-6.5 7.8-6.5 3.2 0 6 1.9 7.1 4.6a6.2 6.2 0 0 1 5.3 6.1c0 3.3-2.7 6-6 6H25.8c-3.4 0-6.2-2.7-6.3-6.1 0-2.3 1.3-4.3 3.3-5.3z"
    fill="none"
    stroke="#f8fafc"
    stroke-width="3.2"
    stroke-linecap="round"
    stroke-linejoin="round"
    opacity="0.9"
  />
  <text
    x="18"
    y="48"
    font-family="Inter, 'Segoe UI', sans-serif"
    font-weight="600"
    font-size="8"
    letter-spacing="1.8"
    fill="#f6f8fb"
    opacity="0.75"
  >
    LEAD
  </text>
</svg>
